PathFileType	4	(X/Y/Z)	TVC_9_Cal_03_0_static_RCNL2025.trc
DataRate	CameraRate	NumFrames	NumMarkers	Units	OrigDataRate	OrigDataStartFrame	OrigNumFrames
100	100	6	27	mm	100	163	260
Frame#	Time	R_Shoulder			L_Shoulder			C7			J_Notch			R_Elbow			L_Elbow			R_Wrist			L_Wrist			R_Asis			L_Asis			R_Psis			L_Psis			Sacral			Thoracic			Sternum			R_Thigh_Lateral			R_Knee_Lateral			R_Shank_Lateral			R_Ankle_Lateral			R_Heel			R_Toe			L_Thigh_Lateral			L_Knee_Lateral			L_Shank_Lateral			L_Ankle_Lateral			L_Heel			L_Toe		
		X1	Y1	Z1	X2	Y2	Z2	X3	Y3	Z3	X4	Y4	Z4	X5	Y5	Z5	X6	Y6	Z6	X7	Y7	Z7	X8	Y8	Z8	X9	Y9	Z9	X10	Y10	Z10	X11	Y11	Z11	X12	Y12	Z12	X13	Y13	Z13	X14	Y14	Z14	X15	Y15	Z15	X16	Y16	Z16	X17	Y17	Z17	X18	Y18	Z18	X19	Y19	Z19	X20	Y20	Z20	X21	Y21	Z21	X22	Y22	Z22	X23	Y23	Z23	X24	Y24	Z24	X25	Y25	Z25	X26	Y26	Z26	X27	Y27	Z27
163	1.62000000	-189.912811	1392.540161	-119.774529	-311.026428	1363.435059	-492.839203	-312.704010	1445.835571	-301.625336	-161.523193	1341.156494	-322.240479	-201.041336	1114.742065	60.850204	-303.438782	1041.605469	-601.448364	-141.641655	875.596710	45.198904	-237.328201	806.304962	-567.561981	-171.528061	938.036560	-130.548676	-239.316025	935.410645	-433.596252	-387.403168	952.482544	-191.981140	-406.394958	949.709961	-288.623932	-396.899063	951.096252	-240.302536	-402.981110	1168.728149	-252.599884	-110.820457	1149.835449	-320.192963	-252.213165	539.859497	-53.478081	-292.453796	443.206512	-114.275497	-269.495697	302.253448	-69.881119	-301.251404	74.173943	-140.055710	-355.349731	60.323086	-201.502335	-172.138733	48.967384	-179.651031	-239.160355	569.277405	-464.911194	-255.067734	420.118103	-412.035492	-274.840973	303.404266	-455.594513	-308.975708	79.848961	-378.861328	-354.190155	53.585373	-315.584625	-168.279327	44.889259	-372.139801
164	1.63000000	-189.950729	1392.456909	-119.828186	-311.089325	1363.436768	-492.937866	-312.810699	1445.765747	-301.609314	-161.612045	1341.215088	-322.260590	-201.135529	1114.617676	60.761730	-303.453491	1041.612305	-601.474426	-141.880966	875.396912	45.123157	-237.349113	806.270905	-567.743866	-171.601303	938.030273	-130.558609	-239.290970	935.443787	-433.653839	-387.418457	952.549377	-192.091690	-406.359619	949.690796	-288.679749	-396.889038	951.120087	-240.385719	-402.977753	1168.682495	-252.687332	-110.817070	1149.877808	-320.229462	-252.405334	540.061646	-53.269814	-292.465820	443.218414	-114.269669	-269.556702	302.257355	-69.939476	-301.222351	74.157974	-140.054062	-355.283600	60.290058	-201.417816	-172.176498	48.978748	-179.610657	-239.329773	569.284607	-464.872894	-255.073105	420.137970	-411.986938	-274.809601	303.418243	-455.595917	-309.036346	79.861168	-378.863312	-354.206329	53.531952	-315.566071	-168.284317	44.907528	-372.146301
165	1.64000000	-190.168625	1392.466431	-119.752022	-311.185303	1363.419067	-492.975494	-312.894226	1445.776489	-301.665680	-161.686157	1341.229126	-322.251282	-201.310638	1114.507812	60.627090	-303.531250	1041.623535	-601.502808	-142.063225	875.239655	45.081327	-237.498260	806.270142	-567.957245	-171.648483	937.902222	-130.637680	-239.287567	935.537903	-433.688721	-387.481995	952.590698	-192.177002	-406.436371	949.617676	-288.772003	-396.959183	951.104187	-240.474503	-402.960022	1168.647095	-252.738220	-110.892769	1149.896240	-320.337708	-252.423584	540.101929	-53.322712	-292.458313	443.214264	-114.262993	-269.573334	302.292023	-69.918182	-301.223480	74.099075	-140.019547	-355.337494	60.306118	-201.490265	-172.188049	48.964237	-179.584625	-239.368362	569.263916	-464.918945	-255.133987	420.109344	-412.063934	-274.884857	303.414581	-455.688690	-309.125824	79.908081	-379.188019	-354.190948	53.414890	-315.588501	-168.283005	44.904690	-372.147858
166	1.65000000	-190.275574	1392.471680	-119.717819	-311.249512	1363.444336	-492.976318	-312.989563	1445.802734	-301.664734	-161.751083	1341.334473	-322.270996	-201.520477	1114.333130	60.545624	-303.540863	1041.726318	-601.521179	-142.152847	875.203278	44.915351	-237.592308	806.275940	-568.148285	-171.656128	938.001343	-130.565338	-239.085007	935.534790	-433.712280	-387.458466	952.585571	-192.297577	-406.375580	949.664429	-288.916626	-396.917023	951.125000	-240.607101	-403.017883	1168.672852	-252.799133	-110.993767	1150.024048	-320.331635	-252.386261	540.102234	-53.438377	-292.509338	443.232025	-114.289856	-269.348145	302.189545	-69.872520	-301.210663	74.144974	-140.075195	-355.340759	60.386456	-201.467453	-172.179398	48.949795	-179.588516	-239.368942	569.317627	-464.931091	-255.167572	420.117157	-412.046692	-274.890503	303.425598	-455.721283	-309.127991	79.885910	-379.221893	-354.250366	53.408672	-315.570892	-168.310715	44.862492	-372.101349
167	1.66000000	-190.324722	1392.371094	-119.758240	-311.261292	1363.480835	-493.042450	-313.085876	1445.913574	-301.617950	-161.758560	1341.369507	-322.281067	-201.730347	1114.268921	60.452637	-303.600403	1041.732910	-601.538513	-142.176140	875.098480	44.840826	-237.709221	806.330109	-568.334991	-171.709076	938.066711	-130.596100	-239.001785	935.501587	-433.752686	-387.509521	952.612000	-192.388474	-406.357941	949.646729	-289.075592	-396.933731	951.129364	-240.732033	-403.007507	1168.668579	-252.846863	-111.005516	1150.032471	-320.321747	-252.429443	539.982483	-53.365139	-292.502167	443.247559	-114.313293	-269.265137	302.175995	-69.920753	-301.253174	74.154556	-140.034546	-355.317810	60.268082	-201.404053	-172.185257	48.979782	-179.589661	-239.274780	569.377380	-465.035278	-255.224411	420.074188	-412.183716	-275.018799	303.482819	-455.729553	-309.180237	79.818886	-378.950714	-354.246979	53.440979	-315.639069	-168.308151	44.864952	-372.124084
168	1.67000000	-190.559296	1392.501953	-119.651695	-311.401672	1363.609253	-492.971985	-313.166931	1445.856323	-301.634644	-161.778122	1341.386230	-322.259644	-201.910706	1114.154663	60.321777	-303.648499	1041.789185	-601.570190	-142.330521	874.957062	44.807057	-237.795532	806.343964	-568.521851	-171.725479	938.054504	-130.551056	-238.888916	935.482056	-433.719055	-387.582458	952.644287	-192.471130	-406.401001	949.796082	-289.078094	-396.991730	951.220184	-240.774612	-403.029297	1168.723755	-252.953384	-110.985931	1150.048462	-320.347046	-252.312042	540.067871	-53.538177	-292.496857	443.245728	-114.301491	-269.537781	302.292419	-69.914955	-301.214539	74.219109	-140.008347	-355.284515	60.330875	-201.429855	-172.134720	48.957088	-179.545456	-239.138306	569.462341	-465.072815	-255.114273	420.058868	-412.231598	-274.968811	303.524750	-455.826385	-309.164124	79.822952	-378.959595	-354.162537	53.480865	-315.620361	-168.291458	44.855347	-372.149139
